<?xml version="1.0" encoding="utf-8"?>
<!DOCTYPE svg PUBLIC "-//W3C//DTD SVG 1.0//EN" "http://www.w3.org/TR/2001/REC-SVG-20010904/DTD/svg10.dtd">
<svg version="1.0" xmlns="http://www.w3.org/2000/svg" width="300px" height="300px" viewBox="0 0 300 300" preserveAspectRatio="xMidYMid meet">
 <g fill="#000000">
  <path d="M139 249.20 c-1.45 -0.60 -2 -1.90 -2 -4.80 0 -2.55 -0.20 -3.10 -1.30 -4.15 -0.75 -0.70 -1.50 -1.25 -1.75 -1.25 -0.55 0 -2.95 -4.45 -2.95 -5.45 0 -0.65 -0.35 -0.80 -1.60 -0.65 -3.15 0.35 -5.55 -1.30 -6.60 -4.50 -0.35 -1.10 -3.30 -1.25 -3.30 -0.20 0 0.40 -0.85 0.75 -2.35 0.95 -3.45 0.40 -6.95 1.70 -8.45 3.10 -0.75 0.70 -1.75 1.25 -2.30 1.25 -0.80 0 -0.90 0.30 -0.60 2.65 0.30 2.50 0.25 2.75 -1.05 3.75 -1.90 1.50 -4.55 1.50 -4.95 0 -0.50 -1.95 -0.35 -3.80 0.45 -4.60 0.40 -0.40 0.75 -0.85 0.75 -1.05 0 -0.70 -2.25 0.45 -3.55 1.85 -1 1.10 -1.95 1.60 -3.55 1.75 -2 0.25 -2.40 0.10 -4.15 -1.55 -1.05 -1 -2.10 -1.80 -2.40 -1.80 -0.30 0 -0.40 -1.05 -0.20 -2.75 0.25 -2.65 0.25 -2.75 -0.95 -2.75 -1.05 0 -1.20 -0.25 -1.20 -1.70 0 -0.95 0.20 -2.30 0.50 -3 0.30 -0.80 0.30 -1.35 0 -1.55 -0.30 -0.20 -0.50 -1.65 -0.50 -3.30 0 -2.70 0.15 -3.15 1.55 -4.40 1.45 -1.35 1.50 -1.55 1.15 -4.10 -0.20 -1.50 -0.75 -3.55 -1.25 -4.55 -0.55 -1.05 -0.95 -2.40 -0.95 -3.05 0 -1.10 -0.25 -1.25 -2.50 -1.45 -1.65 -0.15 -2.95 -0.65 -3.70 -1.35 -1.20 -1.15 -1.75 -0.90 -2.45 1.10 -0.75 2.05 -6.65 2.50 -10.95 0.80 -3.60 -1.40 -5.90 -3.65 -5.90 -5.80 0 -1.50 -0.15 -1.65 -1.45 -1.65 -1.35 0 -1.50 -0.20 -1.80 -2.10 -0.40 -2.40 -3.10 -5.40 -4.80 -5.40 -1.50 0 -1.35 -3.40 0.20 -3.95 1 -0.40 1.10 -0.65 0.95 -3.75 -0.10 -1.90 0 -3.30 0.30 -3.30 0.25 0 0.60 -0.45 0.75 -1 0.20 -0.75 0.70 -1 1.95 -1 2.10 -0.05 3.05 -0.80 4.50 -3.50 1.30 -2.45 2.85 -3.50 5.30 -3.50 1.50 0 1.60 -0.10 1.60 -1.75 0 -1.70 -0.05 -1.75 -2 -1.75 -1.40 0 -2 -0.20 -2 -0.70 0 -0.40 -0.20 -0.80 -0.50 -0.90 -0.25 -0.05 -0.65 -1.60 -0.80 -3.40 -0.25 -2.30 -0.70 -3.70 -1.55 -4.80 -1.30 -1.70 -4.65 -3.40 -8.50 -4.20 -1.60 -0.35 -3.10 -1.15 -4.50 -2.40 l-2.05 -1.85 -0.05 -9.60 c-0.05 -5.25 0.10 -9.95 0.25 -10.40 0.20 -0.45 1 -1.15 1.80 -1.55 1.75 -0.90 10.80 -1.90 17.55 -1.95 4.75 0 4.95 -0.05 5.65 -1.25 0.45 -0.85 0.60 -2.10 0.45 -3.75 -0.15 -1.35 -0.10 -3.70 0.15 -5.15 0.25 -1.40 0.25 -2.60 0.05 -2.60 -0.25 0 -0.45 -0.75 -0.45 -1.60 0 -3.50 -0.60 -5.45 -1.80 -5.90 -0.60 -0.25 -1.75 -1.50 -2.45 -2.75 -1.25 -2.10 -1.35 -2.55 -1 -5.65 0.30 -2.80 0.65 -3.70 2.05 -5.40 0.90 -1.15 2.30 -3.70 3 -5.65 0.75 -2 1.70 -3.75 2.15 -4 1.10 -0.60 10.90 -1.70 11.80 -1.35 0.50 0.15 0.75 0.95 0.75 2.20 0 1.30 0.35 2.25 1 2.85 0.85 0.75 1 0.80 1 0.15 0 -0.95 1.45 -1.40 4.65 -1.40 1.75 0 2.60 -0.25 3.20 -1 0.55 -0.60 1.50 -1 2.50 -1 0.85 0 1.75 -0.20 1.90 -0.50 0.15 -0.25 0.70 -0.50 1.25 -0.50 0.50 0 1 -0.35 1.20 -0.75 0.20 -0.55 1.05 -0.75 3.30 -0.75 1.65 0 3 -0.20 3 -0.50 0 -0.25 -0.20 -0.50 -0.50 -0.50 -0.25 0 -0.50 -0.40 -0.50 -0.85 0 -0.50 -0.45 -1.45 -1 -2.15 -0.70 -0.85 -1 -2.05 -1 -3.85 0 -2.60 0.05 -2.65 1.45 -2.65 2.95 0 3.05 -0.20 3.05 -5.45 l0 -4.80 1.70 -1.35 c0.95 -0.75 1.80 -1.90 1.90 -2.50 0.15 -1.10 0.35 -1.15 4.40 -1.15 l4.20 0 0.50 1.65 c0.40 1.45 0.60 1.60 2.40 1.60 1.55 0 2.45 0.40 4.05 1.75 1.10 0.95 2.20 1.75 2.45 1.75 0.20 0 0.85 0.85 1.40 1.90 2.10 3.90 2.55 4.20 6.35 3.85 2.65 -0.30 3.90 -0.15 5.40 0.45 l1.95 0.80 2.25 -2.55 c2.30 -2.65 7.25 -5.45 9.65 -5.45 1.30 -0.05 2.50 -0.80 3.20 -2.10 0.25 -0.45 1.30 -1.50 2.40 -2.35 1.85 -1.50 2.15 -1.55 6.60 -1.55 l4.70 0 0 1.90 c0 1.05 -0.25 2.15 -0.55 2.45 -0.45 0.45 -0.15 0.85 1.10 1.60 0.95 0.60 2.10 1.05 2.55 1.05 0.45 0 0.95 0.40 1.05 0.90 0.20 0.70 0.30 0.65 0.60 -0.30 0.35 -1.05 0.65 -1.15 2.90 -1 2.30 0.15 2.70 0.35 3.70 1.85 1.40 2.10 1.45 4.45 0.20 8.10 -0.50 1.50 -1 4 -1.15 5.55 -0.20 2.65 -0.15 2.90 0.80 2.90 0.55 0 1.55 0.50 2.25 1.15 0.75 0.65 2.30 1.45 3.55 1.80 3.65 1.05 5.40 1.95 5.70 2.90 0.45 1.35 3.95 0.95 5.65 -0.65 0.70 -0.65 2.30 -1.75 3.50 -2.50 2.15 -1.25 2.45 -1.30 6.75 -0.95 3.25 0.25 4.75 0.60 5.35 1.20 1.20 1.20 5.15 3.05 6.45 3.05 1.75 0 3.60 0.95 3.60 1.80 0 0.50 0.55 1.60 1.25 2.50 1.10 1.45 1.25 2.10 1.25 5.85 0 5.20 -0.95 6.85 -3.90 6.85 -1 0 -2.10 -0.20 -2.40 -0.40 -0.30 -0.20 -0.65 -2.50 -0.80 -5.25 -0.25 -5 -0.95 -6.75 -2.25 -5.95 -0.50 0.30 -0.65 3 -0.65 10.40 -0.05 7.75 -0.20 10.35 -0.75 11.40 -0.40 0.80 -0.75 2.25 -0.75 3.30 0 2 1.25 5 2.10 5 0.35 0 0.45 0.90 0.25 2.55 l-0.30 2.60 2.35 -0.40 c1.30 -0.15 3.20 -0.45 4.30 -0.60 3.10 -0.45 5.55 0.70 8.10 3.70 1.75 2.05 2.60 2.65 3.70 2.65 2.10 0 2.70 2.55 1.25 5.30 -1.30 2.55 -1.20 2.70 2.75 3.50 2.25 0.40 2.50 0.85 2.50 4.20 0 2.70 -0.05 2.80 -2.65 5.05 -1.40 1.25 -3.10 2.55 -3.70 2.90 -0.90 0.45 -1.15 1 -1.15 2.75 0 1.40 -0.30 2.40 -0.85 2.90 -1.70 1.45 -5.15 2.40 -8.65 2.40 -2 0 -3.50 0.20 -3.50 0.50 0 0.30 -0.55 1.65 -1.25 3.10 -1.15 2.40 -1.20 2.60 -0.35 3.20 0.45 0.35 1 0.70 1.15 0.70 0.60 0 1.55 2.90 1.40 4.35 -0.25 2.15 0.35 2.65 3.20 2.65 2.50 0 2.80 0.15 5 2.40 1.30 1.30 2.35 2.75 2.35 3.20 0 0.80 3 2.90 4.20 2.90 2.70 0 3.20 6.25 0.85 10.55 -0.85 1.50 -2.45 4.45 -3.60 6.60 l-2.05 3.85 -3.10 0 c-2.05 0 -3.70 -0.30 -4.95 -0.95 -1.55 -0.80 -1.90 -0.80 -2.40 -0.25 -0.85 1.05 -5.15 0.90 -7.45 -0.30 -1.35 -0.70 -2.95 -1 -5 -1 -1.70 0 -3.45 -0.20 -3.95 -0.45 -1.55 -0.85 -3.20 0.50 -5 4.20 l-1.70 3.50 1.35 2.40 c0.70 1.30 1.30 2.65 1.30 3.05 0 0.35 0.35 1.35 0.75 2.10 0.40 0.80 0.75 2.75 0.75 4.30 0 2.65 -0.10 2.95 -1.45 3.60 -1.40 0.75 -1.45 0.90 -1.65 5.35 -0.25 5.25 -0.35 5.40 -5.45 7.40 -2.70 1.05 -3.40 1.10 -6 0.70 -1.65 -0.25 -3.10 -0.30 -3.25 -0.05 -0.35 0.50 -3.70 0.55 -3.70 0 0 -0.20 -0.85 -0.70 -1.85 -1.10 -1.05 -0.35 -3.30 -1.85 -5 -3.30 l-3.10 -2.60 -2.90 0.25 c-2 0.20 -3.70 0 -5.40 -0.55 -2.35 -0.80 -2.50 -0.80 -3.10 0 -0.35 0.50 -0.65 1.90 -0.65 3.15 -0.05 1.25 -0.35 3.75 -0.80 5.55 -0.40 1.80 -0.85 4.10 -1.05 5.15 -0.15 1 -0.50 1.85 -0.70 1.85 -0.25 0 -0.45 0.40 -0.45 0.90 0 0.55 -0.45 1.35 -1 1.85 -0.55 0.50 -1 1.30 -1 1.80 0 0.50 -0.45 1.15 -0.95 1.45 -1.05 0.55 -18.85 1.20 -20.05 0.70z m-8.80 -24.40 c-0.15 -0.40 -0.85 -1.10 -1.55 -1.55 -1.20 -0.80 -1.20 -0.80 -0.70 0.20 0.30 0.55 0.95 1.25 1.45 1.50 1.10 0.65 1.10 0.65 0.80 -0.15z m24.20 -40.55 c0.60 -0.20 1.10 -0.60 1.10 -0.95 0 -0.70 2.85 -3.80 3.50 -3.80 0.25 0 1.85 -0.90 3.50 -1.95 1.70 -1.10 4.10 -2.35 5.40 -2.75 1.30 -0.45 3.75 -1.85 5.45 -3.20 1.75 -1.30 3.70 -2.75 4.35 -3.20 0.65 -0.50 1.55 -1.55 1.95 -2.35 l0.70 -1.45 -1.95 0.25 c-2.05 0.30 -3.35 -0.65 -3.40 -2.45 0 -0.75 -0.45 -0.90 -2.70 -0.90 -3.60 0 -5.80 -0.50 -5.80 -1.25 0 -0.95 -2.80 -6.70 -3.80 -7.80 -1.35 -1.50 -2 -1.15 -2.95 1.95 -1.15 3.45 -1.90 4.40 -4.45 5.65 -2.95 1.40 -4.70 1.25 -6.65 -0.65 -0.90 -0.90 -1.65 -1.80 -1.65 -2.05 0 -0.30 -1 -1.55 -2.20 -2.85 -2.05 -2.20 -2.30 -2.30 -2.95 -1.55 -1.20 1.35 -1.85 2.90 -1.85 4.45 0 1.75 -0.50 2.20 -3.70 3.30 -3.90 1.25 -7.30 0.85 -7.30 -0.95 0 -0.35 -0.50 -1.10 -1.10 -1.60 -1.05 -0.85 -2.40 -3.70 -2.40 -5.10 0 -1.10 -1.55 -3 -2.30 -2.70 -0.40 0.15 -0.70 0.50 -0.70 0.85 0 1.25 -2.10 1.85 -6.05 1.75 -2.20 -0.05 -4.10 0.05 -4.30 0.25 -0.15 0.15 0.05 0.30 0.50 0.30 0.40 0 1.25 0.60 1.85 1.40 1 1.20 1.10 1.75 0.85 5.55 l-0.30 4.25 2.35 2.75 c4.40 5.20 9.90 10.35 12.25 11.50 1.85 0.90 2.55 1.60 3.30 3.35 0.55 1.20 1.20 2.20 1.45 2.20 0.25 0 1.30 -0.55 2.30 -1.25 1.45 -1 2.45 -1.25 4.80 -1.25 2.35 0 3 0.15 3 0.75 0 0.40 0.25 1.15 0.55 1.65 0.45 0.75 1.05 0.80 4.35 0.55 2.10 -0.20 4.35 -0.50 5 -0.70z m28.10 -29.25 c0 -0.25 -0.55 -0.50 -1.20 -0.50 -0.70 0 -1.40 0.25 -1.55 0.50 -0.20 0.30 0.35 0.50 1.20 0.50 0.85 0 1.55 -0.20 1.55 -0.50z m-44.20 -12.30 c1.30 -2.95 1.75 -3.20 5.50 -3.20 2 0 2.95 0.25 3.60 0.95 1.50 1.60 3.70 4.25 4.50 5.45 1 1.50 1.75 0.80 3.70 -3.25 l1.45 -3.15 3.50 0 c3.15 0 3.50 0.10 3.90 1.15 0.25 0.60 1.45 2.15 2.70 3.45 l2.30 2.30 3 -0.25 c2.10 -0.20 3.05 -0.50 3.05 -0.95 0 -0.40 0.45 -0.70 0.95 -0.70 0.75 0 1.20 -0.75 2.05 -3.25 l1.10 -3.25 -3.30 -3.95 c-1.85 -2.15 -3.85 -4.15 -4.50 -4.50 -1.75 -0.95 -3.80 -4.50 -3.80 -6.60 0 -1.80 0 -1.80 -2.55 -2.15 -1.70 -0.25 -2.85 -0.70 -3.50 -1.45 -3.05 -3.50 -3.95 -4.35 -4.85 -4.35 -0.55 0 -2.65 -0.70 -4.65 -1.55 -3 -1.30 -4 -1.50 -5.90 -1.20 -2.30 0.35 -3.90 1.15 -5.75 2.80 -0.50 0.50 -1.55 1.05 -2.35 1.20 -0.80 0.20 -2.25 0.90 -3.30 1.60 -1.35 0.95 -2.85 1.40 -5.20 1.60 -2.75 0.30 -3.60 0.60 -5.10 1.90 -1 0.90 -2.80 1.85 -3.90 2.15 -1.15 0.35 -2.75 1.20 -3.55 2 -1.15 1.15 -1.40 1.85 -1.40 3.85 0 1.35 -0.25 2.70 -0.60 3.05 -0.75 0.75 -4.25 0.80 -4.50 0.05 -0.20 -0.60 -1.90 -0.05 -1.90 0.60 0 0.25 0.80 0.45 1.75 0.45 1.15 0 1.75 0.25 1.75 0.70 0 0.35 0.35 1 0.80 1.35 0.65 0.50 0.75 1.45 0.60 4.55 -0.15 3.55 -0.10 3.80 0.60 2.90 1.80 -2.30 7 -3.15 11.45 -1.80 1.75 0.50 2.35 0.95 2.75 2.10 0.30 0.85 1.45 2.30 2.55 3.30 l2 1.80 1.95 -1.55 c1.15 -0.95 2.40 -2.60 3.10 -4.15z"/>
  <path d="M178.50 52.75 c0 -1.70 0.05 -1.75 2 -1.75 1.95 0 2 0.05 2 1.75 0 1.70 -0.05 1.75 -2 1.75 -1.95 0 -2 -0.05 -2 -1.75z"/>
 </g>
 <g fill="#ffffff">
  <path d="M0 150 l0 -150 150 0 150 0 0 150 0 150 -150 0 -150 0 0 -150z m157.60 96.95 c0.45 -0.25 0.75 -0.75 0.60 -1.10 -0.10 -0.35 0.30 -1.15 1 -1.80 0.75 -0.70 1.10 -1.45 0.95 -2.10 -0.20 -0.65 0 -0.95 0.55 -0.95 0.45 0 0.80 -0.20 0.80 -0.50 0 -0.25 -0.25 -0.50 -0.55 -0.50 -0.35 0 -0.25 -0.50 0.25 -1.25 0.95 -1.45 2.30 -7.50 2.30 -10.30 0 -4 1.80 -4.85 6.75 -3.20 1.70 0.60 2.85 0.70 4.70 0.35 2.85 -0.50 3.20 -0.35 7.05 2.90 1.50 1.30 3.60 2.65 4.65 3.05 1 0.35 1.85 0.85 1.85 1.15 0 0.25 0.40 0.10 0.90 -0.35 0.75 -0.65 1.25 -0.75 2.60 -0.35 0.90 0.25 2.20 0.35 2.85 0.20 0.65 -0.20 1.15 -0.10 1.15 0.20 0 0.60 4.60 -1.15 6.55 -2.45 1.15 -0.80 1.20 -1.10 1.10 -5.30 l-0.05 -4.50 1.70 -0.80 c1.95 -0.95 2.25 -2.55 0.95 -5.05 -0.40 -0.75 -0.75 -1.75 -0.75 -2.20 0 -0.40 -0.65 -1.85 -1.50 -3.20 -0.80 -1.30 -1.50 -2.90 -1.45 -3.55 0.05 -1.85 3.60 -8.55 4.95 -9.25 0.75 -0.40 2 -0.50 3.25 -0.35 1.10 0.20 3.45 0.35 5.25 0.45 1.80 0.05 3.95 0.45 4.80 0.95 0.85 0.45 1.70 0.65 1.90 0.50 0.15 -0.20 0.30 -0.05 0.30 0.25 0 1.05 2.30 0.40 4.40 -1.30 1.25 -1 2.60 -2.65 3.10 -3.85 0.50 -1.15 1.65 -2.70 2.55 -3.45 1.45 -1.25 1.65 -1.65 1.65 -3.95 0 -2 0.25 -2.80 1 -3.45 1.40 -1.20 2.15 -1.10 2.50 0.25 0.55 2.15 0.30 4.20 -1 6.75 -1.70 3.40 -5.30 7.25 -6.40 6.80 -0.60 -0.20 -0.80 0 -0.80 0.75 0 1.25 2.50 2.55 4.95 2.55 1.30 0 1.65 -0.40 3.50 -3.85 1.15 -2.15 2.75 -5.10 3.60 -6.60 0.80 -1.45 1.45 -3.35 1.45 -4.20 0 -1.60 -1.20 -3.35 -2.30 -3.35 -1.20 0 -4.20 -2.10 -4.20 -2.95 0 -0.45 -1.05 -1.90 -2.35 -3.15 -2.25 -2.15 -2.55 -2.30 -4.60 -2.10 -2.85 0.30 -4.15 -0.80 -4 -3.30 0.20 -2.60 -0.35 -3.65 -2.55 -5 -1.65 -1.05 -1.85 -1.30 -1.30 -2 0.70 -0.85 3.30 -6.30 3.30 -6.95 0 -0.65 2.35 -1.05 5 -0.85 2.45 0.20 5.70 -0.80 7.20 -2.25 0.85 -0.80 0.90 -1.10 0.35 -2.30 -0.60 -1.25 -0.50 -1.45 0.65 -2.40 5.45 -4.30 7.30 -6.10 7.30 -7.10 0 -1.50 -0.50 -2.70 -1.05 -2.40 -0.20 0.15 -0.80 0.10 -1.30 -0.15 -0.50 -0.30 -1.55 -0.70 -2.40 -0.95 -1.90 -0.55 -2.20 -2.30 -0.85 -5.05 1.05 -2.15 0.80 -3.35 -0.60 -2.80 -0.65 0.25 -1.60 -0.45 -3.70 -2.65 -3.35 -3.55 -5.30 -4.50 -7.70 -3.70 -0.90 0.25 -3.10 0.55 -4.90 0.65 -2.70 0.10 -3.20 0 -3.05 -0.60 0.65 -2.50 0.85 -4.50 0.50 -4.50 -1.70 0 -3 -9 -1.50 -10.70 0.70 -0.75 0.80 -2.45 0.80 -11.60 0 -10.25 0.05 -10.65 1 -10.90 1.70 -0.50 3.60 -0.35 4.15 0.30 0.70 0.85 1.30 5.10 1.20 8.25 -0.10 3.20 1 3.95 2.80 1.85 1.70 -1.95 1.45 -6.25 -0.55 -8.80 -0.75 -1.05 -1.30 -2.10 -1.10 -2.40 0.50 -0.80 -2.25 -1.65 -3.05 -0.95 -0.50 0.45 -1 0.25 -2.20 -0.70 -0.80 -0.70 -2.15 -1.40 -3 -1.60 -0.80 -0.20 -1.65 -0.55 -1.80 -0.85 -0.25 -0.35 -0.10 -0.40 0.35 -0.20 0.40 0.20 0.25 0 -0.30 -0.45 -0.55 -0.45 -1.40 -0.70 -1.85 -0.55 -0.50 0.10 -1.75 0 -2.85 -0.30 -1.70 -0.45 -2.20 -0.35 -4.20 0.80 -1.20 0.75 -2.75 1.85 -3.45 2.45 -1.70 1.60 -3.95 2.55 -4.40 1.85 -0.20 -0.35 -1.15 0.25 -2.50 1.60 l-2.15 2.15 0.30 -2.20 c0.45 -3.50 0 -3.95 -5.65 -5.60 -1.25 -0.35 -2.80 -1.15 -3.55 -1.80 -1.45 -1.30 -2.55 -1.45 -3.40 -0.45 -0.65 0.75 -2.55 0.50 -2.55 -0.35 0 -0.30 0.55 -1.15 1.25 -1.85 0.90 -0.95 1.35 -2.05 1.55 -4.05 0.15 -1.50 0.70 -4.10 1.25 -5.80 1.05 -3.25 0.95 -4.15 -0.95 -6.25 -0.90 -1.05 -2.60 -1.20 -2.60 -0.25 0 0.35 -0.80 1.40 -1.75 2.35 l-1.70 1.65 -0.35 -2.05 c-0.25 -1.45 -0.55 -2.10 -1.15 -2.10 -0.45 0 -1.45 -0.40 -2.30 -0.90 -1.35 -0.85 -1.55 -0.85 -2.05 -0.15 -0.50 0.65 -0.70 0.65 -1.40 0.05 -1.10 -0.85 -0.85 -2.75 0.35 -2.75 0.70 0 2.35 -2.15 2.35 -3.05 0 -0.10 -1.45 -0.20 -3.20 -0.20 -2.80 0 -3.40 0.20 -5.10 1.55 -1.10 0.85 -2.15 1.90 -2.40 2.35 -0.70 1.30 -1.90 2.05 -3.20 2.10 -2.40 0 -7.35 2.80 -9.60 5.40 -2.55 2.85 -4.05 3.25 -7.20 1.90 -1.55 -0.70 -2.20 -0.75 -3.20 -0.35 -0.65 0.35 -1.60 0.45 -2.10 0.30 -0.50 -0.15 -1 0 -1.15 0.40 -0.40 1.05 -2.85 0.45 -2.85 -0.65 0 -0.50 -0.35 -1.15 -0.80 -1.55 -0.40 -0.35 -1.20 -1.50 -1.75 -2.55 -0.55 -1.05 -1.15 -1.90 -1.35 -1.90 -0.25 0 -1.35 -0.80 -2.45 -1.75 -1.70 -1.45 -2.45 -1.75 -4.40 -1.75 -1.25 0 -2.20 -0.20 -2.05 -0.45 0.20 -0.25 0.10 -1.05 -0.20 -1.80 -0.45 -1.20 -0.70 -1.30 -3.10 -1.15 -2.30 0.15 -2.65 0.30 -2.80 1.25 -0.10 0.65 -0.95 1.80 -1.95 2.60 l-1.80 1.45 0.35 3.60 c0.15 2 0.15 4.10 0 4.75 -0.30 1.30 -2.40 2.40 -3.75 2 -1.40 -0.45 -1.25 1.55 0.30 3.50 0.65 0.90 1.05 1.75 0.90 1.95 -0.20 0.15 0.05 0.60 0.45 0.95 0.55 0.40 0.70 1.10 0.55 2.20 -0.20 1.35 -0.50 1.60 -2.05 1.80 -1.05 0.15 -2.40 0.40 -3.05 0.60 -0.95 0.35 -1.15 0.25 -0.85 -0.30 0.20 -0.40 0.05 -0.30 -0.35 0.15 -0.40 0.50 -0.95 0.90 -1.20 0.90 -0.30 0 -1.20 0.35 -1.95 0.75 -0.80 0.40 -1.85 0.60 -2.35 0.45 -0.50 -0.15 -0.95 0.05 -1.15 0.50 -0.35 0.95 -2.95 1.75 -5.05 1.60 -0.90 -0.10 -1.50 0.05 -1.35 0.25 0.35 0.65 -1.55 1.45 -3.45 1.45 -2.25 0 -3.60 -1.50 -3.45 -3.75 0.10 -0.90 0 -1.75 -0.25 -1.90 -0.60 -0.35 -9.10 0.90 -9.65 1.45 -0.25 0.25 -1.05 2 -1.75 3.90 -0.70 1.90 -2.15 4.45 -3.15 5.70 -1 1.25 -1.55 2.10 -1.20 1.90 0.70 -0.40 0.80 0.25 0.15 1 -1.15 1.25 -1 3.10 0.45 5.35 0.80 1.30 1.60 2.35 1.75 2.35 0.20 0 0.15 -0.30 -0.05 -0.60 -0.20 -0.35 0.10 -0.20 0.70 0.30 0.60 0.55 1.10 1.45 1.10 2.10 0 0.65 0.25 1.30 0.55 1.50 0.35 0.20 0.45 1.10 0.30 2.25 -0.20 1.40 -0.05 1.95 0.40 1.95 0.90 0 1.25 2.30 0.45 3.10 -0.40 0.40 -0.70 1.80 -0.70 3.40 0 5.95 -0.05 6.65 -0.80 8.05 -0.70 1.35 -1.55 1.70 -3.70 1.55 -0.40 -0.05 -1.85 -0.15 -3.25 -0.30 -1.35 -0.15 -3.40 0 -4.50 0.30 -1.10 0.25 -3.45 0.60 -5.25 0.70 -6.10 0.35 -7.80 0.95 -8.25 2.85 -0.15 0.60 -0.20 4.65 -0.10 9 l0.15 7.90 2 1.70 c1.20 1.05 2.85 1.90 4.35 2.25 5.90 1.25 9.85 4.20 9.85 7.35 0 2.40 0.60 5.15 1.05 4.85 0.25 -0.15 0.45 0.20 0.45 0.75 0 0.60 0.25 1.05 0.50 1.05 0.30 0 0.50 -0.25 0.50 -0.50 0 -0.30 0.30 -0.50 0.65 -0.45 1.45 0.20 1.90 -0.20 3.65 -3.15 2.25 -3.90 2.40 -4.05 1.95 -1.90 -0.40 1.80 -2.25 6.15 -2.75 6.40 -0.15 0.05 -0.20 1.15 -0.15 2.50 0.15 3.50 -0.10 3.95 -2 3.75 -2.30 -0.25 -3.90 0.80 -5.25 3.35 -1.45 2.70 -2.40 3.45 -4.50 3.50 -1.25 0 -1.75 0.25 -1.95 1 -0.15 0.55 -0.45 1 -0.70 1 -0.55 0 -0.25 2.50 0.45 3.85 0.80 1.45 0.30 2.45 -1.55 3.20 -1.45 0.55 -1.50 0.65 -0.45 0.80 2 0.40 4.45 3.20 4.85 5.60 0.25 1.45 0.50 1.95 0.75 1.50 0.35 -0.50 0.70 -0.50 1.80 -0.05 1.15 0.55 1.30 0.85 1.05 2.35 -0.25 1.50 -0.05 1.90 1.55 3.35 4.15 3.75 10.35 4.35 12.10 1.15 1.10 -2 3.60 -2.30 5.35 -0.70 0.90 0.90 1.70 1.15 3.40 1.05 2.25 -0.10 3.40 0.80 2.90 2.25 -0.10 0.30 0.25 1.50 0.80 2.60 0.60 1.10 1.05 2.65 1.05 3.40 0 0.75 0.35 2.05 0.75 2.85 0.70 1.30 1.10 4.30 0.50 3.70 -0.15 -0.15 -1 0.40 -1.85 1.20 -1.70 1.55 -2.30 4.10 -1.30 5.30 0.50 0.60 0.35 3.55 -0.30 5.10 -0.25 0.60 0.20 0.80 2.05 0.90 2.45 0.15 4.05 1.10 3.40 2.05 -0.15 0.30 -0.50 0.45 -0.75 0.30 -0.80 -0.50 -2.60 0.75 -2.30 1.55 0.15 0.40 0.05 0.70 -0.20 0.70 -0.30 0 -0.50 0.25 -0.50 0.50 0 0.30 0.20 0.50 0.45 0.50 0.20 0 1.25 0.80 2.25 1.75 2.05 1.90 2.80 1.85 4.85 -0.20 1.60 -1.65 3.35 -2.65 3.95 -2.30 0.30 0.20 0.50 0.05 0.50 -0.30 0 -0.40 0.75 -0.50 2.65 -0.30 2.10 0.25 2.85 0.15 3.85 -0.65 0.70 -0.55 1.05 -1 0.75 -1 -1.05 -0.10 5.60 -2.05 7.85 -2.35 1.30 -0.15 2.25 -0.45 2.15 -0.70 -0.15 -0.20 0.10 -0.60 0.60 -0.85 0.75 -0.45 0.70 -0.65 -0.50 -2.10 -1.55 -1.80 -1.65 -2.60 -0.60 -3.50 1.05 -0.85 2.90 0.75 2.45 2.10 -0.45 1.50 1.10 3.40 2.80 3.40 0.95 0 1.65 0.35 2 1 0.30 0.55 0.40 1 0.25 1 -0.15 0 0.05 0.50 0.45 1.10 1.05 1.45 3.30 2.40 4.45 1.80 1.35 -0.70 1 -1.95 -1.20 -3.95 -1.50 -1.35 -2.15 -2.40 -2.45 -3.85 -0.45 -2.50 0 -3.40 1.30 -2.70 0.55 0.25 1.60 0.80 2.35 1.15 0.75 0.35 1.90 1.50 2.45 2.55 0.60 1.05 1.25 1.90 1.45 1.90 0.90 0 0.85 2.40 -0.10 4.40 l-1.05 2.15 1.15 2.25 c0.65 1.25 1.90 2.70 2.80 3.25 1.80 1.15 2.25 2.15 2.40 5.70 0.15 3.35 0.10 3.20 1.40 3.75 1.35 0.60 16.15 0.15 17.45 -0.55z m-54.05 -8.80 c0.50 -0.40 0.70 -1.15 0.55 -1.90 -0.30 -1.60 -0.55 -1.55 -1.95 0.10 -0.80 0.90 -1 1.50 -0.65 1.90 0.25 0.30 0.30 0.80 0.10 1 -0.50 0.60 1 -0.25 1.95 -1.10z"/>
  <path d="M152.15 244.50 c0.15 -0.55 0.05 -1 -0.20 -1 -0.65 0 -0.55 -2.70 0.15 -3.40 0.35 -0.35 1 -0.60 1.50 -0.60 1.25 0 1.20 2.25 -0.10 4.40 -1.10 1.80 -1.75 2.10 -1.35 0.60z"/>
  <path d="M143.80 186.30 c-0.45 -0.70 -0.80 -1.60 -0.80 -1.95 0 -0.95 -3 -1 -4 -0.10 -1.30 1.20 -4.50 2.30 -5.60 1.95 -0.55 -0.15 -1.45 -1.25 -1.95 -2.45 -0.75 -1.70 -1.45 -2.40 -3.30 -3.30 -3.85 -1.85 -14.55 -13.15 -14.75 -15.50 -0.05 -0.65 0.10 -2.55 0.30 -4.20 0.35 -2.65 0.25 -3.20 -0.70 -4.40 -0.60 -0.75 -1.50 -1.35 -2.05 -1.35 -0.70 0 -0.95 -0.35 -0.95 -1.45 0 -2.05 1.55 -3.10 3.65 -2.50 2.25 0.65 5.45 0.55 6.45 -0.25 0.50 -0.35 0.75 -0.80 0.60 -0.95 -0.15 -0.15 0.35 -0.60 1.15 -1.05 0.80 -0.40 1.75 -1.10 2.15 -1.55 0.55 -0.70 0.80 -0.45 2.05 2.05 0.80 1.50 1.40 2.95 1.35 3.10 -0.20 1.05 0.95 3.45 2.20 4.50 0.75 0.65 1.30 1.40 1.15 1.60 -0.15 0.25 0.15 0.70 0.70 0.95 0.70 0.40 1.60 0.30 3.35 -0.30 3.25 -1.05 3.70 -1.50 3.70 -3.35 0 -1.50 0.90 -3.25 2.90 -5.75 0.85 -1.05 1.05 -1.10 2 -0.50 0.60 0.40 1.10 0.95 1.10 1.20 0 0.30 0.90 1.45 2 2.50 1.10 1.05 2 2.20 2 2.50 0 0.30 0.75 1.25 1.65 2.15 l1.65 1.60 2 -0.95 c2.50 -1.25 3.60 -2.45 3.80 -4.30 0.10 -0.80 0.45 -1.80 0.80 -2.15 0.35 -0.40 0.50 -0.90 0.30 -1.15 -0.15 -0.25 0.15 -0.60 0.65 -0.80 0.50 -0.15 1.10 -0.60 1.30 -1 0.70 -1.10 1.65 -0.75 3.15 1.20 1.55 2.05 4.20 7.35 4.20 8.40 0 0.75 3.95 1.55 5.20 1.10 0.40 -0.15 1 -1.20 1.30 -2.30 0.40 -1.55 1.05 -2.35 2.80 -3.55 1.30 -0.85 2.80 -1.50 3.40 -1.40 0.90 0.15 1.05 -0.10 1.05 -1.85 0 -1.10 -0.20 -2.55 -0.45 -3.25 -0.35 -1.05 -0.10 -0.90 1.35 0.75 0.95 1.10 1.55 2.10 1.30 2.15 -0.25 0.10 -0.45 0.40 -0.45 0.65 0 0.30 0.20 0.40 0.45 0.25 0.65 -0.45 0.95 3.30 0.35 4.30 -0.40 0.70 -0.30 1.05 0.45 1.60 0.55 0.45 1.30 0.80 1.65 0.80 0.35 0 0.60 0.65 0.60 1.45 0 1.25 -0.35 1.65 -2.25 2.55 -1.85 0.90 -2.25 1.35 -2.25 2.50 0 0.75 -0.35 1.65 -0.75 2 -0.40 0.35 -0.75 0.90 -0.75 1.25 0 1.25 -8.40 7.35 -11.95 8.70 -1.50 0.55 -3.90 1.80 -5.35 2.80 -1.50 0.95 -2.90 1.75 -3.15 1.75 -0.75 0 -3.60 3.20 -3.35 3.80 0.25 0.70 -3.25 1.60 -7.45 1.85 -1.90 0.15 -3.85 0.40 -4.30 0.55 -0.55 0.25 -1.10 -0.05 -1.65 -0.90z m38.55 -24.95 c0.20 -0.35 0.45 -1.45 0.50 -2.50 l0.15 -1.90 -2.30 0.25 c-2.70 0.30 -2.70 0.30 -3.50 2.60 -0.45 1.35 -0.50 2.05 -0.10 2.70 0.50 0.80 0.75 0.80 2.75 0.15 1.15 -0.40 2.30 -1 2.50 -1.30z"/>
  <path d="M169.65 187.15 c-1 -0.35 -0.75 -2.55 0.30 -3.15 1.85 -0.95 2.65 -0.65 2.45 1.05 -0.15 1.60 -1.45 2.55 -2.75 2.10z"/>
  <path d="M106 160.45 c-0.45 -0.80 -0.40 -1.40 0.20 -2.70 1 -2.10 1.25 -2.25 2.65 -1.70 0.95 0.35 1.05 0.65 0.80 2.30 -0.50 2.90 -2.60 4.10 -3.65 2.10z"/>
  <path d="M130.25 148.80 c-1.35 -1.40 -2.75 -3.20 -3.05 -4.05 -0.45 -1.25 -1 -1.60 -3.30 -2.20 -2.55 -0.65 -3 -0.65 -5.10 0.15 -1.25 0.50 -2.55 1.30 -2.80 1.85 -0.40 0.70 -1.10 0.95 -2.75 0.95 l-2.20 0 0.70 -2.35 c0.95 -3.10 0.95 -5.35 0 -6.15 -0.40 -0.35 -0.75 -0.95 -0.75 -1.30 0 -0.80 -0.80 -0.95 -1.25 -0.20 -0.15 0.30 -1.10 0.50 -2.10 0.50 -1.50 0 -1.70 -0.15 -1.40 -0.85 0.20 -0.50 0.55 -1.60 0.80 -2.50 0.45 -1.50 1.20 -2.10 3.15 -2.50 1.70 -0.30 3.70 -2.15 4.30 -3.90 0.70 -2.05 2.45 -3.55 5.05 -4.25 1 -0.30 2.80 -1.30 3.95 -2.25 2.45 -2.05 2 -1.85 5.50 -2 2.05 -0.05 3.25 -0.40 4.65 -1.40 1.05 -0.70 2.55 -1.45 3.40 -1.60 0.85 -0.20 1.65 -0.65 1.80 -1.05 0.15 -0.40 0.45 -0.55 0.70 -0.40 0.25 0.15 0.45 0.05 0.45 -0.15 0 -1.05 3.25 -2.25 6.65 -2.50 3.25 -0.25 3.95 -0.10 7.30 1.30 2 0.85 4.10 1.55 4.65 1.55 0.95 0 2.85 1.70 4.40 3.95 0.40 0.60 1.20 1.15 1.75 1.25 0.55 0.10 1.25 0.25 1.50 0.30 0.30 0.05 1.25 0.10 2.20 0.05 1.40 -0.05 1.60 -0.15 1.05 -0.80 -0.30 -0.40 -0.45 -1.15 -0.30 -1.65 0.25 -0.75 -0.15 -1.15 -1.80 -1.90 -1.15 -0.50 -2.30 -0.90 -2.45 -0.85 -0.20 0.05 -0.75 -0.35 -1.25 -0.90 -0.85 -0.95 -0.85 -1 0.20 -2.05 1.05 -1.05 1.10 -1.05 3 -0.20 2.95 1.35 6.60 4.90 6.60 6.40 0 1.50 -1.75 3.20 -3.10 3 -0.85 -0.15 -0.90 -0.05 -0.40 0.95 0.45 0.80 0.45 1.15 0 1.45 -0.45 0.30 -0.40 0.70 0.15 1.80 0.80 1.55 3.25 4.20 3.85 4.20 0.70 0 7.50 8.55 7.50 9.40 0 0.45 -0.65 2.55 -1.40 4.60 -1.05 2.85 -1.60 3.70 -2.25 3.60 -0.50 -0.10 -0.85 0.20 -0.85 0.65 0 0.45 -0.45 0.75 -1.10 0.80 -0.65 0 -1.95 0.10 -2.90 0.25 -0.95 0.15 -2.05 0.25 -2.45 0.30 -0.40 0.05 -0.80 0.50 -0.95 1 -0.20 0.90 -0.30 0.90 -1.15 0.10 -0.55 -0.45 -0.95 -1.10 -0.95 -1.35 0 -0.30 -0.90 -1.40 -2.05 -2.50 -1.10 -1.10 -2.25 -2.55 -2.50 -3.20 -0.35 -0.95 -0.80 -1.15 -2.40 -1.15 -1.90 0 -2.05 0.10 -3.25 2.75 -0.75 1.50 -2.15 3.85 -3.20 5.25 l-1.85 2.50 -0.45 -1.40 c-0.60 -1.85 -2.75 -4.80 -5.90 -8.15 -0.90 -0.95 -2.65 -1.20 -4.15 -0.65 -0.45 0.20 -1.35 1.50 -1.95 2.95 -0.90 1.95 -1.90 3.15 -4.10 4.85 l-2.95 2.20 -2.50 -2.50z m-16.35 -17.90 c0.80 -0.80 0.75 -1.45 -0.10 -1.10 -0.80 0.30 -1.50 1.70 -0.90 1.70 0.25 0 0.65 -0.25 1 -0.60z"/>
  <path d="M233.90 148.60 c-1.85 -0.15 -1.90 -0.20 -1.90 -2.10 0 -1.65 0.20 -2.05 1.45 -2.65 1.45 -0.70 1.50 -0.70 2.05 0.65 0.30 0.75 0.50 2.05 0.40 2.80 -0.15 1.35 -0.30 1.45 -2 1.30z"/>
  <path d="M212.85 108.65 c-0.20 -0.15 0.05 -0.60 0.55 -0.95 0.90 -0.65 2.35 0 1.80 0.85 -0.30 0.50 -1.90 0.60 -2.35 0.10z"/>
  <path d="M154.80 66.15 c0.40 -1.55 1.10 -2.65 1.75 -2.65 0.60 0 2.45 1.90 2.45 2.50 0 0.70 -1.75 1.50 -3.25 1.50 -1.15 0 -1.25 -0.15 -0.95 -1.35z"/>
  <path d="M167 56.95 c0 -0.35 -0.45 -0.95 -1 -1.45 -1 -0.85 -1 -0.85 0 -1.75 0.55 -0.50 1 -0.65 1 -0.35 0 0.30 -0.25 0.70 -0.55 0.90 -0.40 0.25 -0.30 0.50 0.25 0.80 0.40 0.25 1 0.90 1.30 1.40 0.45 0.80 0.35 1 -0.25 1 -0.40 0 -0.75 -0.25 -0.75 -0.55z"/>
 </g>
</svg>